<svg width="148" height="206" viewBox="0 0 148 206" fill="none" xmlns="http://www.w3.org/2000/svg">
<path d="M107.622 81.1888C124.632 81.3728 138.571 67.7329 138.755 50.723C138.939 33.7131 125.299 19.7747 108.289 19.5906C91.2789 19.4065 77.3405 33.0466 77.1565 50.0564C76.9724 67.0663 90.6123 81.0047 107.622 81.1888Z" stroke="url(#paint0_linear_4729_1162)" stroke-opacity="0.6" stroke-width="7.97396" stroke-linecap="round" stroke-linejoin="round"/>
<path d="M107.622 81.1888C124.632 81.3728 138.571 67.7329 138.755 50.723C138.939 33.7131 125.299 19.7747 108.289 19.5906C91.2789 19.4065 77.3405 33.0466 77.1565 50.0564C76.9724 67.0663 90.6123 81.0047 107.622 81.1888Z" stroke="url(#paint1_radial_4729_1162)" stroke-opacity="0.54" stroke-width="7.97396" stroke-linecap="round" stroke-linejoin="round"/>
<path d="M107.622 81.1888C124.632 81.3728 138.571 67.7329 138.755 50.723C138.939 33.7131 125.299 19.7747 108.289 19.5906C91.2789 19.4065 77.3405 33.0466 77.1565 50.0564C76.9724 67.0663 90.6123 81.0047 107.622 81.1888Z" stroke="#272727" stroke-opacity="0.47" stroke-width="7.97396" stroke-linecap="round" stroke-linejoin="round" style="mix-blend-mode:color"/>
<path d="M55.4306 24.5413C47.3912 30.0205 42.0707 39.2107 41.9574 49.6771C41.8362 60.8805 47.7121 70.7516 56.5978 76.2378" stroke="url(#paint2_linear_4729_1162)" stroke-opacity="0.6" stroke-width="7.97396" stroke-linecap="round" stroke-linejoin="round"/>
<path d="M55.4306 24.5413C47.3912 30.0205 42.0707 39.2107 41.9574 49.6771C41.8362 60.8805 47.7121 70.7516 56.5978 76.2378" stroke="url(#paint3_radial_4729_1162)" stroke-opacity="0.54" stroke-width="7.97396" stroke-linecap="round" stroke-linejoin="round"/>
<path d="M55.4306 24.5413C47.3912 30.0205 42.0707 39.2107 41.9574 49.6771C41.8362 60.8805 47.7121 70.7516 56.5978 76.2378" stroke="#272727" stroke-opacity="0.47" stroke-width="7.97396" stroke-linecap="round" stroke-linejoin="round" style="mix-blend-mode:color"/>
<path d="M53.871 168.615L53.7758 177.415L159.373 178.558L159.468 169.758C159.645 153.358 159.734 145.157 157.125 138.659C153.646 129.996 146.867 123.07 138.281 119.404C131.842 116.654 123.641 116.566 107.241 116.388C90.8403 116.211 82.6398 116.122 76.1421 118.732C67.4789 122.21 60.5523 128.989 56.8868 137.575C54.1372 144.014 54.0485 152.215 53.871 168.615Z" stroke="url(#paint4_linear_4729_1162)" stroke-opacity="0.6" stroke-width="7.97396" stroke-linecap="round" stroke-linejoin="round"/>
<path d="M53.871 168.615L53.7758 177.415L159.373 178.558L159.468 169.758C159.645 153.358 159.734 145.157 157.125 138.659C153.646 129.996 146.867 123.07 138.281 119.404C131.842 116.654 123.641 116.566 107.241 116.388C90.8403 116.211 82.6398 116.122 76.1421 118.732C67.4789 122.21 60.5523 128.989 56.8868 137.575C54.1372 144.014 54.0485 152.215 53.871 168.615Z" stroke="url(#paint5_radial_4729_1162)" stroke-opacity="0.54" stroke-width="7.97396" stroke-linecap="round" stroke-linejoin="round"/>
<path d="M53.871 168.615L53.7758 177.415L159.373 178.558L159.468 169.758C159.645 153.358 159.734 145.157 157.125 138.659C153.646 129.996 146.867 123.07 138.281 119.404C131.842 116.654 123.641 116.566 107.241 116.388C90.8403 116.211 82.6398 116.122 76.1421 118.732C67.4789 122.21 60.5523 128.989 56.8868 137.575C54.1372 144.014 54.0485 152.215 53.871 168.615Z" stroke="#272727" stroke-opacity="0.47" stroke-width="7.97396" stroke-linecap="round" stroke-linejoin="round" style="mix-blend-mode:color"/>
<path d="M18.5766 177.034L18.6337 171.755C18.8471 152.041 18.9537 142.185 22.8717 134.697C26.3179 128.11 31.761 122.784 38.4206 119.481" stroke="url(#paint6_linear_4729_1162)" stroke-opacity="0.6" stroke-width="7.97396" stroke-linecap="round" stroke-linejoin="round"/>
<path d="M18.5766 177.034L18.6337 171.755C18.8471 152.041 18.9537 142.185 22.8717 134.697C26.3179 128.11 31.761 122.784 38.4206 119.481" stroke="url(#paint7_radial_4729_1162)" stroke-opacity="0.54" stroke-width="7.97396" stroke-linecap="round" stroke-linejoin="round"/>
<path d="M18.5766 177.034L18.6337 171.755C18.8471 152.041 18.9537 142.185 22.8717 134.697C26.3179 128.11 31.761 122.784 38.4206 119.481" stroke="#272727" stroke-opacity="0.47" stroke-width="7.97396" stroke-linecap="round" stroke-linejoin="round" style="mix-blend-mode:color"/>
<defs>
<linearGradient id="paint0_linear_4729_1162" x1="76.9731" y1="66.9959" x2="163.851" y2="59.5276" gradientUnits="userSpaceOnUse">
<stop offset="0.0797841" stop-color="#576265"/>
<stop offset="0.245" stop-color="#576265"/>
<stop offset="0.62" stop-color="#757A7B"/>
<stop offset="0.755" stop-color="#576265"/>
</linearGradient>
<radialGradient id="paint1_radial_4729_1162" cx="0" cy="0" r="1" gradientUnits="userSpaceOnUse" gradientTransform="translate(170.39 -98.3277) rotate(114.407) scale(181.865 39.345)">
<stop stop-color="white"/>
<stop offset="0.48" stop-color="white" stop-opacity="0.8"/>
<stop offset="0.9999" stop-color="white" stop-opacity="0"/>
</radialGradient>
<linearGradient id="paint2_linear_4729_1162" x1="41.7976" y1="64.4488" x2="63.0145" y2="64.0848" gradientUnits="userSpaceOnUse">
<stop offset="0.0797841" stop-color="#576265"/>
<stop offset="0.245" stop-color="#576265"/>
<stop offset="0.62" stop-color="#757A7B"/>
<stop offset="0.755" stop-color="#576265"/>
</linearGradient>
<radialGradient id="paint3_radial_4729_1162" cx="0" cy="0" r="1" gradientUnits="userSpaceOnUse" gradientTransform="translate(65.5077 -74.8412) rotate(97.8752) scale(140.742 10.3355)">
<stop stop-color="white"/>
<stop offset="0.48" stop-color="white" stop-opacity="0.8"/>
<stop offset="0.9999" stop-color="white" stop-opacity="0"/>
</radialGradient>
<linearGradient id="paint4_linear_4729_1162" x1="53.9258" y1="163.555" x2="200.332" y2="140.867" gradientUnits="userSpaceOnUse">
<stop offset="0.0797841" stop-color="#576265"/>
<stop offset="0.245" stop-color="#576265"/>
<stop offset="0.62" stop-color="#757A7B"/>
<stop offset="0.755" stop-color="#576265"/>
</linearGradient>
<radialGradient id="paint5_radial_4729_1162" cx="0" cy="0" r="1" gradientUnits="userSpaceOnUse" gradientTransform="translate(212.784 -1.05993) rotate(127.695) scale(208.582 58.8092)">
<stop stop-color="white"/>
<stop offset="0.48" stop-color="white" stop-opacity="0.8"/>
<stop offset="0.9999" stop-color="white" stop-opacity="0"/>
</radialGradient>
<linearGradient id="paint6_linear_4729_1162" x1="18.7172" y1="164.038" x2="46.0305" y2="163.453" gradientUnits="userSpaceOnUse">
<stop offset="0.0797841" stop-color="#576265"/>
<stop offset="0.245" stop-color="#576265"/>
<stop offset="0.62" stop-color="#757A7B"/>
<stop offset="0.755" stop-color="#576265"/>
</linearGradient>
<radialGradient id="paint7_radial_4729_1162" cx="0" cy="0" r="1" gradientUnits="userSpaceOnUse" gradientTransform="translate(48.99 8.39148) rotate(98.9634) scale(157.72 13.2734)">
<stop stop-color="white"/>
<stop offset="0.48" stop-color="white" stop-opacity="0.8"/>
<stop offset="0.9999" stop-color="white" stop-opacity="0"/>
</radialGradient>
</defs>
</svg>
