<svg width="105" height="186" viewBox="0 0 105 186" fill="none" xmlns="http://www.w3.org/2000/svg">
<path d="M30.5896 56.3065C30.5896 58.2823 30.1133 60.1346 29.1607 61.8634C28.2433 63.5922 26.7791 64.9859 24.768 66.0443C22.7922 67.1028 20.2872 67.632 17.2529 67.632H11.0609V81.8154H3.6517V44.8751H17.2529C20.1108 44.8751 22.5453 45.369 24.5563 46.3569C26.5674 47.3448 28.0669 48.7032 29.0548 50.432C30.078 52.1608 30.5896 54.119 30.5896 56.3065ZM16.9354 61.6517C18.9818 61.6517 20.4989 61.193 21.4868 60.2757C22.4747 59.3231 22.9686 58 22.9686 56.3065C22.9686 52.7077 20.9576 50.9083 16.9354 50.9083H11.0609V61.6517H16.9354ZM48.7633 44.8751C52.6443 44.8751 56.0491 45.6336 58.9775 47.1508C61.9412 48.6679 64.2169 50.8377 65.8046 53.6603C67.4275 56.4476 68.239 59.6936 68.239 63.3982C68.239 67.1028 67.4275 70.3487 65.8046 73.136C64.2169 75.888 61.9412 78.0226 58.9775 79.5397C56.0491 81.0569 52.6443 81.8154 48.7633 81.8154H35.8501V44.8751H48.7633ZM48.4987 75.5176C52.3797 75.5176 55.3787 74.4591 57.4956 72.3422C59.6126 70.2253 60.671 67.2439 60.671 63.3982C60.671 59.5524 59.6126 56.5534 57.4956 54.4012C55.3787 52.2137 52.3797 51.12 48.4987 51.12H43.2593V75.5176H48.4987Z" fill="white"/>
<path d="M83.5763 93L70.7901 73.1009L59.1894 93H45.8104L64.4393 63.1937L45.5564 33.8954H59.1894L71.9756 53.7099L83.4917 33.8954H96.8706L78.3264 63.6171L97.2093 93H83.5763Z" fill="#04D31C"/>
<path d="M74.4104 128.924C74.4104 126.949 74.8867 125.096 75.8393 123.368C76.7567 121.639 78.2209 120.245 80.232 119.187C82.2078 118.128 84.7128 117.599 87.7471 117.599H93.9391V103.416H101.348V140.356H87.7471C84.8892 140.356 82.4547 139.862 80.4437 138.874C78.4326 137.886 76.9331 136.528 75.9452 134.799C74.922 133.07 74.4104 131.112 74.4104 128.924ZM88.0646 123.579C86.0182 123.579 84.5011 124.038 83.5132 124.955C82.5253 125.908 82.0314 127.231 82.0314 128.924C82.0314 132.523 84.0424 134.323 88.0646 134.323H93.9391V123.579H88.0646ZM56.2367 140.356C52.3557 140.356 48.9509 139.597 46.0225 138.08C43.0588 136.563 40.7831 134.393 39.1954 131.571C37.5725 128.783 36.761 125.537 36.761 121.833C36.761 118.128 37.5725 114.882 39.1954 112.095C40.7831 109.343 43.0588 107.208 46.0225 105.691C48.9509 104.174 52.3557 103.416 56.2367 103.416H69.1499V140.356H56.2367ZM56.5013 109.713C52.6203 109.713 49.6213 110.772 47.5044 112.889C45.3874 115.006 44.329 117.987 44.329 121.833C44.329 125.679 45.3874 128.678 47.5044 130.83C49.6213 133.017 52.6203 134.111 56.5013 134.111H61.7407V109.713H56.5013Z" fill="white"/>
<path d="M21.4244 92.231L34.2106 112.13L45.8114 92.231H59.1904L40.5614 122.037L59.4444 151.336H45.8114L33.0251 131.521L21.5091 151.336H8.13009L26.6744 121.614L7.79139 92.231H21.4244Z" fill="#04D31C"/>
</svg>
