<svg width="606" height="806" viewBox="0 0 606 806" fill="none" xmlns="http://www.w3.org/2000/svg">
<path d="M203 200.333C201.527 200.333 200.333 201.527 200.333 203C200.333 204.473 201.527 205.667 203 205.667C204.473 205.667 205.667 204.473 205.667 203C205.667 201.527 204.473 200.333 203 200.333ZM203 400.333C201.527 400.333 200.333 401.527 200.333 403C200.333 404.473 201.527 405.667 203 405.667C204.473 405.667 205.667 404.473 205.667 403C205.667 401.527 204.473 400.333 203 400.333ZM202.5 203L202.5 403L203.5 403L203.5 203L202.5 203Z" fill="white" fill-opacity="0.1"/>
<path d="M3 200.333C1.52724 200.333 0.333333 201.527 0.333333 203C0.333333 204.473 1.52724 205.667 3 205.667C4.47276 205.667 5.66667 204.473 5.66667 203C5.66667 201.527 4.47276 200.333 3 200.333ZM2.99999 400.333C1.52723 400.333 0.333325 401.527 0.333325 403C0.333325 404.473 1.52723 405.667 2.99999 405.667C4.47275 405.667 5.66666 404.473 5.66666 403C5.66666 401.527 4.47275 400.333 2.99999 400.333ZM2.5 203L2.49999 403L3.49999 403L3.5 203L2.5 203Z" fill="white" fill-opacity="0.1"/>
<path d="M0.333333 403C0.333333 404.473 1.52724 405.667 3 405.667C4.47276 405.667 5.66667 404.473 5.66667 403C5.66667 401.527 4.47276 400.333 3 400.333C1.52724 400.333 0.333333 401.527 0.333333 403ZM200.333 403C200.333 404.473 201.527 405.667 203 405.667C204.473 405.667 205.667 404.473 205.667 403C205.667 401.527 204.473 400.333 203 400.333C201.527 400.333 200.333 401.527 200.333 403ZM3 403.5L203 403.5V402.5L3 402.5V403.5Z" fill="white" fill-opacity="0.1"/>
<path d="M0.333333 203C0.333333 204.473 1.52724 205.667 3 205.667C4.47276 205.667 5.66667 204.473 5.66667 203C5.66667 201.527 4.47276 200.333 3 200.333C1.52724 200.333 0.333333 201.527 0.333333 203ZM200.333 203C200.333 204.473 201.527 205.667 203 205.667C204.473 205.667 205.667 204.473 205.667 203C205.667 201.527 204.473 200.333 203 200.333C201.527 200.333 200.333 201.527 200.333 203ZM3 203.5L203 203.5V202.5L3 202.5V203.5Z" fill="white" fill-opacity="0.1"/>
<path d="M403 0.333333C401.527 0.333333 400.333 1.52724 400.333 3C400.333 4.47276 401.527 5.66667 403 5.66667C404.473 5.66667 405.667 4.47276 405.667 3C405.667 1.52724 404.473 0.333333 403 0.333333ZM403 200.333C401.527 200.333 400.333 201.527 400.333 203C400.333 204.473 401.527 205.667 403 205.667C404.473 205.667 405.667 204.473 405.667 203C405.667 201.527 404.473 200.333 403 200.333ZM402.5 3L402.5 203L403.5 203L403.5 3L402.5 3Z" fill="white" fill-opacity="0.1"/>
<path d="M203 0.333333C201.527 0.333333 200.333 1.52724 200.333 3C200.333 4.47276 201.527 5.66667 203 5.66667C204.473 5.66667 205.667 4.47276 205.667 3C205.667 1.52724 204.473 0.333333 203 0.333333ZM203 200.333C201.527 200.333 200.333 201.527 200.333 203C200.333 204.473 201.527 205.667 203 205.667C204.473 205.667 205.667 204.473 205.667 203C205.667 201.527 204.473 200.333 203 200.333ZM202.5 3L202.5 203L203.5 203L203.5 3L202.5 3Z" fill="white" fill-opacity="0.1"/>
<path d="M200.333 203C200.333 204.473 201.527 205.667 203 205.667C204.473 205.667 205.667 204.473 205.667 203C205.667 201.527 204.473 200.333 203 200.333C201.527 200.333 200.333 201.527 200.333 203ZM400.333 203C400.333 204.473 401.527 205.667 403 205.667C404.473 205.667 405.667 204.473 405.667 203C405.667 201.527 404.473 200.333 403 200.333C401.527 200.333 400.333 201.527 400.333 203ZM203 203.5L403 203.5V202.5L203 202.5V203.5Z" fill="white" fill-opacity="0.1"/>
<path d="M200.333 3C200.333 4.47276 201.527 5.66667 203 5.66667C204.473 5.66667 205.667 4.47276 205.667 3C205.667 1.52724 204.473 0.333333 203 0.333333C201.527 0.333333 200.333 1.52724 200.333 3ZM400.333 3C400.333 4.47276 401.527 5.66667 403 5.66667C404.473 5.66667 405.667 4.47276 405.667 3C405.667 1.52724 404.473 0.333333 403 0.333333C401.527 0.333333 400.333 1.52724 400.333 3ZM203 3.5L403 3.5V2.5L203 2.5V3.5Z" fill="white" fill-opacity="0.1"/>
<path d="M203 600.333C201.527 600.333 200.333 601.527 200.333 603C200.333 604.473 201.527 605.667 203 605.667C204.473 605.667 205.667 604.473 205.667 603C205.667 601.527 204.473 600.333 203 600.333ZM203 800.333C201.527 800.333 200.333 801.527 200.333 803C200.333 804.473 201.527 805.667 203 805.667C204.473 805.667 205.667 804.473 205.667 803C205.667 801.527 204.473 800.333 203 800.333ZM202.5 603L202.5 803L203.5 803L203.5 603L202.5 603Z" fill="white" fill-opacity="0.1"/>
<path d="M3 600.333C1.52724 600.333 0.333333 601.527 0.333333 603C0.333333 604.473 1.52724 605.667 3 605.667C4.47276 605.667 5.66667 604.473 5.66667 603C5.66667 601.527 4.47276 600.333 3 600.333ZM2.99999 800.333C1.52723 800.333 0.333325 801.527 0.333325 803C0.333325 804.473 1.52723 805.667 2.99999 805.667C4.47275 805.667 5.66666 804.473 5.66666 803C5.66666 801.527 4.47275 800.333 2.99999 800.333ZM2.5 603L2.49999 803L3.49999 803L3.5 603L2.5 603Z" fill="white" fill-opacity="0.1"/>
<path d="M0.333333 803C0.333333 804.473 1.52724 805.667 3 805.667C4.47276 805.667 5.66667 804.473 5.66667 803C5.66667 801.527 4.47276 800.333 3 800.333C1.52724 800.333 0.333333 801.527 0.333333 803ZM200.333 803C200.333 804.473 201.527 805.667 203 805.667C204.473 805.667 205.667 804.473 205.667 803C205.667 801.527 204.473 800.333 203 800.333C201.527 800.333 200.333 801.527 200.333 803ZM3 803.5H203V802.5H3V803.5Z" fill="white" fill-opacity="0.1"/>
<path d="M0.333333 603C0.333333 604.473 1.52724 605.667 3 605.667C4.47276 605.667 5.66667 604.473 5.66667 603C5.66667 601.527 4.47276 600.333 3 600.333C1.52724 600.333 0.333333 601.527 0.333333 603ZM200.333 603C200.333 604.473 201.527 605.667 203 605.667C204.473 605.667 205.667 604.473 205.667 603C205.667 601.527 204.473 600.333 203 600.333C201.527 600.333 200.333 601.527 200.333 603ZM3 603.5H203V602.5H3V603.5Z" fill="white" fill-opacity="0.1"/>
<path d="M403 400.333C401.527 400.333 400.333 401.527 400.333 403C400.333 404.473 401.527 405.667 403 405.667C404.473 405.667 405.667 404.473 405.667 403C405.667 401.527 404.473 400.333 403 400.333ZM403 600.333C401.527 600.333 400.333 601.527 400.333 603C400.333 604.473 401.527 605.667 403 605.667C404.473 605.667 405.667 604.473 405.667 603C405.667 601.527 404.473 600.333 403 600.333ZM402.5 403L402.5 603L403.5 603L403.5 403L402.5 403Z" fill="white" fill-opacity="0.1"/>
<path d="M203 400.333C201.527 400.333 200.333 401.527 200.333 403C200.333 404.473 201.527 405.667 203 405.667C204.473 405.667 205.667 404.473 205.667 403C205.667 401.527 204.473 400.333 203 400.333ZM203 600.333C201.527 600.333 200.333 601.527 200.333 603C200.333 604.473 201.527 605.667 203 605.667C204.473 605.667 205.667 604.473 205.667 603C205.667 601.527 204.473 600.333 203 600.333ZM202.5 403L202.5 603L203.5 603L203.5 403L202.5 403Z" fill="white" fill-opacity="0.1"/>
<path d="M200.333 603C200.333 604.473 201.527 605.667 203 605.667C204.473 605.667 205.667 604.473 205.667 603C205.667 601.527 204.473 600.333 203 600.333C201.527 600.333 200.333 601.527 200.333 603ZM400.333 603C400.333 604.473 401.527 605.667 403 605.667C404.473 605.667 405.667 604.473 405.667 603C405.667 601.527 404.473 600.333 403 600.333C401.527 600.333 400.333 601.527 400.333 603ZM203 603.5H403V602.5H203V603.5Z" fill="white" fill-opacity="0.25"/>
<path d="M200.333 403C200.333 404.473 201.527 405.667 203 405.667C204.473 405.667 205.667 404.473 205.667 403C205.667 401.527 204.473 400.333 203 400.333C201.527 400.333 200.333 401.527 200.333 403ZM400.333 403C400.333 404.473 401.527 405.667 403 405.667C404.473 405.667 405.667 404.473 405.667 403C405.667 401.527 404.473 400.333 403 400.333C401.527 400.333 400.333 401.527 400.333 403ZM203 403.5L403 403.5V402.5L203 402.5V403.5Z" fill="white" fill-opacity="0.1"/>
<path d="M603 200.333C601.527 200.333 600.333 201.527 600.333 203C600.333 204.473 601.527 205.667 603 205.667C604.473 205.667 605.667 204.473 605.667 203C605.667 201.527 604.473 200.333 603 200.333ZM603 400.333C601.527 400.333 600.333 401.527 600.333 403C600.333 404.473 601.527 405.667 603 405.667C604.473 405.667 605.667 404.473 605.667 403C605.667 401.527 604.473 400.333 603 400.333ZM602.5 203L602.5 403L603.5 403L603.5 203L602.5 203Z" fill="white" fill-opacity="0.2"/>
<path d="M403 200.333C401.527 200.333 400.333 201.527 400.333 203C400.333 204.473 401.527 205.667 403 205.667C404.473 205.667 405.667 204.473 405.667 203C405.667 201.527 404.473 200.333 403 200.333ZM403 400.333C401.527 400.333 400.333 401.527 400.333 403C400.333 404.473 401.527 405.667 403 405.667C404.473 405.667 405.667 404.473 405.667 403C405.667 401.527 404.473 400.333 403 400.333ZM402.5 203L402.5 403L403.5 403L403.5 203L402.5 203Z" fill="white" fill-opacity="0.2"/>
<path d="M400.333 403C400.333 404.473 401.527 405.667 403 405.667C404.473 405.667 405.667 404.473 405.667 403C405.667 401.527 404.473 400.333 403 400.333C401.527 400.333 400.333 401.527 400.333 403ZM600.333 403C600.333 404.473 601.527 405.667 603 405.667C604.473 405.667 605.667 404.473 605.667 403C605.667 401.527 604.473 400.333 603 400.333C601.527 400.333 600.333 401.527 600.333 403ZM403 403.5L603 403.5V402.5L403 402.5V403.5Z" fill="white" fill-opacity="0.2"/>
<path d="M400.333 203C400.333 204.473 401.527 205.667 403 205.667C404.473 205.667 405.667 204.473 405.667 203C405.667 201.527 404.473 200.333 403 200.333C401.527 200.333 400.333 201.527 400.333 203ZM600.333 203C600.333 204.473 601.527 205.667 603 205.667C604.473 205.667 605.667 204.473 605.667 203C605.667 201.527 604.473 200.333 603 200.333C601.527 200.333 600.333 201.527 600.333 203ZM403 203.5L603 203.5V202.5L403 202.5V203.5Z" fill="white" fill-opacity="0.2"/>
</svg>